<svg xmlns="http://www.w3.org/2000/svg" width="1240" height="1240"><path d="M897.685 61.959c-8.928 2.863-20.122 17.889-27.796 37.309-1.137 2.878-3.546 10.999-5.354 18.048l-3.288 12.815-.694-7.815c-2.686-30.214-11.397-47.598-25.976-51.837-10.098-2.935-19.216.328-26.435 9.46-7.555 9.558-12.47 23.391-13.878 39.061l-.764 8.5-2.684-4.5c-4.007-6.717-11.419-14.683-16.352-17.574-2.526-1.48-6.605-2.783-9.667-3.088-16.992-1.693-32.906 21.502-44.108 64.288l-3.37 12.874-6.689 3.683c-17.048 9.387-28.201 20.089-34.722 33.317-4.248 8.618-6.863 18.915-6.891 27.141l-.017 5.142-6.974 1.575c-9.529 2.152-14.524 4.916-21.189 11.727-8.692 8.883-14.865 23.469-17.317 40.915-.566 4.026-1.187 4.886-5.895 8.164-11.644 8.107-17.466 22.154-18.375 44.335l-.533 12.998-4.918 5.502c-6.245 6.986-11.296 17.349-13.262 27.209-1.676 8.403-1.955 22.674-.582 29.789.856 4.439.804 4.564-3.934 9.574-8.923 9.436-12.464 20.329-11.839 36.429l.368 9.5-10.333 3.308c-16.295 5.217-17.491 8.197-6.28 15.65 3.687 2.451 11.847 8.863 18.133 14.249 16.358 14.015 57.713 55.443 64.179 64.293 12.85 17.585 35.656 35.403 62.657 48.953 11.119 5.58 26.463 10.017 41.745 12.073 13.252 1.783 41.02.755 53.849-1.994 20.598-4.412 43.459-13.44 58.773-23.211 5.48-3.496 6.948-4.989 7.693-7.821.506-1.925 3.894-20.825 7.529-42 6.312-36.774 6.915-39.419 13.444-59 9.898-29.68 28.889-76.646 51.556-127.5 15.173-34.04 28.073-82.602 41.441-156 7.527-41.324 15.428-68.424 29.882-102.487 3.615-8.517 6.509-16.316 6.433-17.33-.221-2.931-2.046-4.463-7.951-6.672-8.797-3.291-15.906-3.629-24.088-1.144-20.006 6.077-37.778 30.245-52.306 71.133-2.975 8.372-3.901 10.095-4.569 8.5-.46-1.1-.824-13.7-.809-28 .022-20.599.395-27.943 1.798-35.352 1.994-10.532 5.967-23.802 8.789-29.358 3.925-7.727.944-19.2-6.029-23.205-3.838-2.204-17.505-3.196-22.401-1.626m2.847 3.98c-5.473 1.127-14.72 10.999-20.204 21.57-8.127 15.665-16.019 44.372-17.951 65.292-.618 6.694-.908 7.422-3.496 8.761l-2.823 1.459.017-20.76c.016-20.92-.839-30.738-3.637-41.761-5.204-20.504-16.067-29.508-30.699-25.444-5.244 1.456-11.122 7.937-15.822 17.444-5.251 10.621-7.179 20.05-7.31 35.75-.059 7.012-.366 12.75-.683 12.75-1.151 0-4.702-4.616-7.305-9.5-4.44-8.326-12.383-18.155-17.308-21.418-5.258-3.482-12.308-4.169-17.142-1.669-4.193 2.168-11.409 10.402-15.425 17.6-6.391 11.456-14.641 35.152-19.145 54.987-.434 1.91-2.209 3.267-7.521 5.749-9.411 4.398-22.126 14.165-27.436 21.074C677.671 219.495 674 230.219 674 244.749v8.961l-6.926.581c-21.037 1.763-36.414 21.515-38.787 49.821-.537 6.413-.727 6.827-3.677 8.044-4.962 2.046-11.554 8.79-14.718 15.057-4.327 8.572-6.064 17.51-6.071 31.238l-.006 11.952-5.39 5.389c-5.88 5.88-10.493 14.322-12.956 23.708-1.871 7.13-2.159 26.644-.5 33.935 1.002 4.405.93 5.038-.673 5.896-.988.529-3.694 2.967-6.013 5.418-7.545 7.975-11.127 22.017-9.311 36.5 1.097 8.751.882 9.751-2.103 9.751-2.736 0-20.869 6.069-20.869 6.985 0 .402 2.461 2.366 5.468 4.362 3.008 1.997 10.32 7.769 16.25 12.827 15.292 13.043 60.766 58.281 65.083 64.746 15.158 22.7 55.211 49.764 84.499 57.097 29.618 7.416 60.42 6.069 90.871-3.971 10.312-3.401 35.822-15.693 39.983-19.266 2.522-2.166 2.963-4.103 8.828-38.78 3.396-20.075 7.49-41.543 9.098-47.706 6.482-24.845 24.887-72.063 53.761-137.917 5.998-13.683 13.184-31.852 15.967-40.377 9.556-29.264 19.227-70.273 28.182-119.5 2.802-15.4 6.402-33.175 8.001-39.5 6.099-24.123 16.003-52.641 25.656-73.875 1.844-4.056 3.353-7.534 3.353-7.73 0-.195-1.913-1.368-4.25-2.608-6.34-3.361-20.255-3.276-27.195.165-10.338 5.125-22.057 18.602-31.419 36.131-4.806 8.998-13.998 32.36-17.194 43.701l-2.335 8.285-2.802-2.803c-2.348-2.348-2.991-4.178-3.965-11.284-1.586-11.584-1.6-46.39-.023-57.482 1.741-12.244 5.739-27.844 8.842-34.5 4.171-8.947 3.084-16.501-2.943-20.45-2.81-1.842-11.915-2.695-17.184-1.611m-661.617 25.22c-.808 1.509-1.001 7.452-.642 19.75.443 15.192 1.08 20.523 4.672 39.089 6.643 34.348 6.925 35.331 18.061 63.017 3.758 9.342 6.65 16.985 6.427 16.985-1.848 0-14.449-31.92-25.055-63.471-5-14.874-6.382-20.274-6.396-25-.025-7.99-2.497-24.871-4.49-30.653-2.093-6.072-5.555-9.276-10.022-9.276-4.772 0-10.062 5.338-15.065 15.202a3952.567 3952.567 0 01-4.09 8.05c-.102.194-1.215-.369-2.473-1.25-1.258-.881-3.821-1.602-5.696-1.602-10.703 0-17.856 22.071-22.2 68.5-.618 6.6-1.246 12.125-1.396 12.278-.15.153-1.489-.185-2.976-.75-8.371-3.183-16.114.839-18.69 9.708-2.938 10.112-.753 34.223 5.466 60.33l2.279 9.567-5.372-1.979c-6.623-2.44-11.536-1.543-14.661 2.676-1.834 2.475-2.087 4.165-2.023 13.5.079 11.452 2.046 20.67 8.679 40.67l3.317 10-1.936 5.5c-3.496 9.928-2.677 25.65 2.479 47.635l2.142 9.135-2.5 5.365c-9.175 19.688-4.863 39.712 12.232 56.808l5.514 5.514-.321 8.521c-.542 14.393 4.39 25.857 15.487 36l5.474 5.002-1.164 7.679c-2.611 17.226 2.631 31.462 15.249 41.416 4.911 3.875 5.325 4.54 6.003 9.655 1.377 10.394 8.497 21.928 15.951 25.841 2.535 1.331 2.648 1.702 2.111 6.91-1.004 9.723 4.678 18.972 14.063 22.893 2.928 1.224 3.571 2.142 4.65 6.638 1.671 6.966 7.689 13.378 14.186 15.116 4.485 1.2 4.662 1.391 5.318 5.769 1.533 10.218 5.752 15.902 13.538 18.235 2.543.761 3.955 1.777 3.955 2.845 0 .913.69 3.985 1.534 6.827 2.54 8.55 7.258 12.08 19.538 14.614 2.15.444 2.77 1.384 3.771 5.722 1.566 6.784 4.393 11.221 8.957 14.06 3.119 1.939 5.061 2.3 12.37 2.3h8.67l.673 4.463c1.026 6.798 3.343 11.703 7.077 14.982 4.64 4.074 10.264 5.406 19.981 4.735l8.072-.557 1.295 3.581C373.861 767.79 383.296 774 392.656 774c8.018 0 23.68-5.831 32.465-12.086 1.647-1.173 3.133-1.971 3.302-1.773.169.197 1.067 2.686 1.996 5.53 4.329 13.253 16.282 19.765 31.331 17.067 3.511-.629 4.25-.49 4.25.8 0 2.129 2.774 7.457 5.367 10.307 5.107 5.614 13.661 6.967 23.464 3.711l5.207-1.729 3.5 3.072c1.924 1.69 4.615 3.352 5.98 3.695 1.365.343 2.482.915 2.482 1.271 0 .357-12.409 13.021-27.575 28.142-25.165 25.09-28.328 28.629-36.194 40.493-9.887 14.913-26.985 32.946-41.167 43.418-17.068 12.604-52.928 32.523-91.227 50.674-25.934 12.291-34.082 16.953-48.688 27.859-12.129 9.057-38.537 34.94-48.44 47.479-8.663 10.969-10.969 15.901-11.103 23.754-.089 5.182-.526 6.641-2.7 9-7.65 8.305-10.682 15.354-9.447 21.97.865 4.631 8.107 12.109 12.596 13.007 1.62.324 2.935.87 2.924 1.214-.012.344-2.016 3.703-4.453 7.464-5.152 7.954-6.42 13.585-4.236 18.812 2.163 5.178 7.049 7.152 18.96 7.663 9.1.391 11.322 1.096 8.651 2.747-2.065 1.276-6.899 12.931-6.9 16.633-.001 5.765 3.029 8.321 13.499 11.382 16.915 4.946 40.031 4.287 54.5-1.554 2.475-.999 9-3.197 14.5-4.884 12.697-3.896 24.374-9.543 36.777-17.785 9.347-6.211 18.705-14.836 35.701-32.904a6734.383 6734.383 0 0118.883-19.949c12.267-12.908 25.673-28.445 42.051-48.736 17.49-21.669 34.108-35.489 47.882-39.819 4.544-1.428 11.22-2.372 20.706-2.926 11.786-.689 19.481-2.012 48.652-8.368 56.341-12.274 92.557-20.582 105.348-24.166 28.779-8.063 67.648-25.223 111.5-49.225 25.796-14.12 45.586-27.955 70.009-48.945 13.326-11.452 47.893-44.707 56.36-54.221 19.619-22.042 34.316-46.43 49.525-82.182 6.799-15.982 9.094-19.719 19.804-32.248 14.944-17.482 27.029-25.444 48.848-32.183 15.704-4.851 26.324-5.205 36.954-1.232 9.471 3.54 22.612 7.2 36.733 10.232 13.891 2.982 12.269 2.874 14.196.948 1.86-1.861 2.143-14.219.49-21.429-1.382-6.027-6.904-17.307-11.6-23.695-2.1-2.858-10.119-15.593-17.819-28.301-15.082-24.892-22.169-33.812-33.004-41.544-15.38-10.975-27.353-13.96-55.996-13.96-19.304 0-20.273.096-27.835 2.771-21.326 7.544-45.741 22.432-67.462 41.138-22.129 19.056-37.222 29.856-51.703 36.997-32.727 16.138-56.724 21.578-89.5 20.288-10.578-.416-17.205-1.245-24.5-3.063-22.958-5.721-41.43-12.97-58.5-22.955-10.01-5.856-12.318-7.94-49.5-44.696-41.657-41.181-46.385-45.545-65-59.992-15.113-11.729-22.659-18.173-34-29.034-4.95-4.74-23.941-21.298-42.203-36.795-28.567-24.242-35.967-31.129-53-49.321-22.065-23.566-24.559-26.594-37.766-45.845-11.781-17.172-17.122-26.524-29.589-51.806-9.117-18.489-13.509-28.511-29.882-68.187-2.857-6.925-6.953-19.636-9.182-28.5-7.756-30.842-19.934-77.027-21.039-79.791-2.827-7.071-8.49-10.098-10.804-5.775-1.647 3.078-1.293 43.777.483 55.566.829 5.5 1.756 10.9 2.06 12 .45 1.626.355 1.72-.507.5-1.772-2.508-10.488-25.272-18.427-48.128-8.163-23.497-22.081-59.489-23.811-61.573-1.697-2.045-5.625-1.556-6.918.86m4.421 21.341c.305 16.676.677 19.765 5.051 42 5.272 26.8 7.46 34.033 18.173 60.103 7.407 18.023 9.358 26.397 6.148 26.397-2.405 0-9.491-8.462-12.98-15.5-3.755-7.574-14.609-36.253-22.52-59.5-4.408-12.953-5.057-15.994-6.084-28.5-1.814-22.069-4.65-31.5-9.473-31.5-3.885 0-9.545 7.895-15.213 21.222l-2.859 6.723-2.76-3.348c-4.011-4.866-6.456-5.16-10.37-1.246-6.341 6.341-11.24 29.264-14.443 67.582-.572 6.839-1.234 12.628-1.471 12.866-.238.237-2.793-.746-5.68-2.184-6.498-3.238-9.271-3.29-12.331-.23-3.738 3.738-4.838 9.646-4.209 22.615.63 12.999 2.377 23.87 6.749 41.985 2.829 11.722 2.907 12.563 1.283 13.75-2.357 1.724-3.772 1.599-8.347-.735-5.086-2.595-9.188-2.556-11.595.11-4.356 4.824-1.066 26.601 7.882 52.178l3.425 9.788-1.968 3.976c-4.093 8.274-3.347 27.331 1.884 48.072l2.553 10.126-3.134 6.798c-8.567 18.587-4.993 35.141 11.069 51.276l7.789 7.823-1.038 5.614c-2.606 14.099 4.316 30.331 16.863 39.541l5.012 3.679-1.355 5.759c-4.172 17.728.759 33.242 13.456 42.334l5.622 4.026 1.267 7.498c2.018 11.948 6.271 18.694 14.834 23.526 4.714 2.66 5.278 3.3 4.384 4.969-1.554 2.904-1.346 12.241.346 15.512 2.057 3.979 4.426 5.945 10.241 8.499 5.681 2.495 6.427 3.326 6.448 7.186.023 4.165 3.671 10.529 7.305 12.745 1.766 1.076 5.347 2.241 7.96 2.589l4.75.634.022 5.621c.042 10.821 5.168 17.18 13.945 17.301l3.82.053.388 6.851c.616 10.905 5.644 15.73 17.371 16.672l6.454.518v4.798c0 13.153 9.381 19.935 23.617 17.076 3.144-.631 6.032-1.148 6.418-1.148.386 0 .913 3.295 1.172 7.322.739 11.512 5.016 16.724 14.924 18.186 3.918.578 13.303-.586 17.4-2.158.596-.229 1.835 1.961 2.755 4.867 1.842 5.819 5.113 9.904 9.925 12.392 5.423 2.804 16.871 1.524 26.266-2.938 4.256-2.021 9.738-5.024 12.181-6.673 2.443-1.649 5.719-2.998 7.279-2.998 2.581 0 2.895.392 3.49 4.362.36 2.399 2.098 6.758 3.864 9.686 5.494 9.113 14.501 12.026 26.253 8.489 2.675-.805 4.941-1.368 5.037-1.25.096.117.908 2.769 1.804 5.894 1.946 6.78 6.197 11.462 11.27 12.414 4.411.827 12.755-.95 17.226-3.669 1.839-1.118 3.462-1.897 3.605-1.73.143.167.999 1.759 1.904 3.537 2.15 4.229 6.857 6.585 13.354 6.686 2.884.044 5.247.163 5.25.263.003.1-14.314 14.5-31.816 32-28.351 28.347-32.649 33.072-39.405 43.318-21.242 32.211-44.082 50.028-103.273 80.562-11 5.674-26.947 13.53-35.437 17.458-8.491 3.928-19.046 9.223-23.456 11.767-22.586 13.028-50.938 38.746-70.399 63.861-6.271 8.092-8.508 15.803-6.282 21.657.801 2.107.381 2.956-3.127 6.315-12.008 11.498-13.051 22.15-2.686 27.438 2.094 1.068 4.735 1.942 5.869 1.942 1.185 0 2.51.985 3.118 2.319.917 2.014.316 3.425-4.568 10.722-5.031 7.517-5.592 8.874-5.328 12.881.259 3.925.728 4.731 3.796 6.528 2.998 1.756 5.208 2.05 15.417 2.05 8.815 0 12.028.334 12.344 1.285.236.706-1.466 4.193-3.783 7.748-4.722 7.248-7.319 13.818-6.491 16.424.703 2.218 3.62 3.526 13.264 5.945 21.233 5.329 33.406 3.734 69.249-9.069 20.47-7.312 43.454-22.897 55.488-37.625 2.565-3.139 11.51-12.683 19.877-21.208 15.419-15.708 29.687-31.926 48.832-55.5 16.295-20.066 31.317-33.706 44.303-40.227 6.605-3.317 16.314-5.3 29-5.922 9.044-.444 18.282-1.925 37.5-6.011 50.307-10.695 106.707-23.61 117.957-27.01 29.868-9.026 63.076-23.771 106.043-47.085 37.443-20.317 64.469-41.205 106.398-82.232 21.507-21.045 30.135-31.157 41.823-49.013 10.346-15.808 17.251-28.964 25.717-49 6.893-16.313 9.115-20.756 13.246-26.486 5.192-7.202 22.172-24.78 28.304-29.301 7.523-5.545 19.337-11.54 27.087-13.744 3.259-.927 8.85-2.51 12.425-3.519 3.775-1.066 9.951-1.859 14.733-1.892 6.934-.049 9.854.503 18.5 3.496 10.038 3.475 32.905 9.479 41.668 10.939l4.4.734-.583-7.864c-.832-11.222-3.717-18.468-13.031-32.728-4.503-6.893-13.137-20.677-19.187-30.632-6.05-9.954-13.159-20.778-15.797-24.053-5.594-6.943-15.528-14.754-24.187-19.017-16.216-7.983-51.599-10.216-69.157-4.364-9.902 3.301-31.22 14.346-42.859 22.207-6.6 4.457-16.95 12.463-23 17.79-16.256 14.313-38.116 30.382-49.259 36.21-19.116 9.997-40.261 17.385-59.387 20.751-13.325 2.345-44.372 2.007-57.162-.622-14.576-2.997-37.947-10.919-50.988-17.283-20.958-10.228-23.919-12.676-66.204-54.729-38.679-38.467-46.907-46.075-62.775-58.047-11.018-8.312-17.672-14.001-33.742-28.846-7.443-6.875-24.996-22.128-39.007-33.895-26.022-21.853-60.029-54.854-75.477-73.246-15.114-17.992-31.895-44.105-44.894-69.859-11.101-21.993-17.159-35.532-29.977-67-8.039-19.733-10.452-27.027-15.055-45.5-9.364-37.578-18.428-71.368-19.78-73.735-1.257-2.203-1.302-2.168-1.635 1.235-.188 1.925-.126 13.85.137 26.5.433 20.751.784 24.466 3.589 38 1.709 8.25 3.11 15.367 3.112 15.816.002.449-1.208.674-2.69.5-2.407-.282-3.316-1.697-8.551-13.316-6.538-14.509-12.427-29.938-22.153-58.04-3.609-10.428-9.719-26.835-13.578-36.46l-7.017-17.5.329 18" fill="undefined" fill-rule="evenodd"/></svg>